<svg xmlns="http://www.w3.org/2000/svg" viewBox="0 0 64 64" width="64" height="64" role="img" aria-label="Seek-O-Sphere"><defs><radialGradient id="sosSpace" cx="50%" cy="45%" r="60%"><stop offset="0" stop-color="#3A241A"/><stop offset="1" stop-color="#17100A"/></radialGradient><radialGradient id="sosEarth" cx="38%" cy="34%" r="70%"><stop offset="0" stop-color="#3E6E88"/><stop offset="1" stop-color="#284B60"/></radialGradient><radialGradient id="sosSun" cx="50%" cy="50%" r="50%"><stop offset="0" stop-color="#FFE08A"/><stop offset="55%" stop-color="#F97316"/><stop offset="100%" stop-color="#EA580C"/></radialGradient></defs><circle cx="32" cy="32" r="31" fill="url(#sosSpace)"/><circle cx="32" cy="32" r="31" fill="none" stroke="#C0562F" stroke-width="1" opacity=".45"/><circle cx="32" cy="32" r="22" fill="none" stroke="#CDB79E" stroke-width="1" opacity=".4"/><circle cx="32" cy="10" r="8" fill="#F97316" opacity=".22"/><circle cx="32" cy="10" r="5" fill="url(#sosSun)"/><circle cx="48" cy="16" r="2.7" fill="#C0562F"/><g transform="rotate(20 54 32)"><ellipse cx="54" cy="32" rx="5.4" ry="1.8" fill="none" stroke="#E0B15A" stroke-width="1.2"/></g><circle cx="54" cy="32" r="3.1" fill="#DDAE52"/><circle cx="48" cy="48" r="2.7" fill="#AC8F62"/><circle cx="32" cy="54" r="3" fill="#E8A579"/><circle cx="16" cy="48" r="3.5" fill="#8C6E7A"/><circle cx="10" cy="32" r="2.5" fill="#7A8C72"/><circle cx="16" cy="16" r="2.3" fill="#C9B79E"/><circle cx="32" cy="32" r="8" fill="url(#sosEarth)"/><path d="M27 29 q3 -1 5 1 q2 2 -1 3 q-3 1 -4 -1 q-1 -2 0 -3 Z" fill="#6E8467"/><ellipse cx="29" cy="29" rx="2.4" ry="1.6" fill="#fff" opacity=".28"/></svg>
